HIERARCHY
ROOT Hips
{
	OFFSET 0.00000 0.00000 0.00000
	CHANNELS 6 Xposition Yposition Zposition Zrotation Yrotation Xrotation 
	JOINT LHipJoint
	{
		OFFSET 0 0 0
		CHANNELS 3 Zrotation Yrotation Xrotation
		JOINT LeftHip
		{
			OFFSET 1.84395 -1.68683 0.74144
			CHANNELS 3 Zrotation Yrotation Xrotation
			JOINT LeftKnee
			{
				OFFSET 2.27037 -6.23779 0.00000
				CHANNELS 3 Zrotation Yrotation Xrotation
				JOINT LeftAnkle
				{
					OFFSET 2.56918 -7.05877 0.00000
					CHANNELS 3 Zrotation Yrotation Xrotation
					JOINT LeftToe
					{
						OFFSET 0.22276 -0.61202 1.71784
						CHANNELS 3 Zrotation Yrotation Xrotation
						End Site
						{
							OFFSET 0.00000 -0.00000 0.91613
						}
					}
				}
			}
		}
	}
	JOINT RHipJoint
	{
		OFFSET 0 0 0
		CHANNELS 3 Zrotation Yrotation Xrotation
		JOINT RightHip
		{
			OFFSET -1.76833 -1.68684 0.74144
			CHANNELS 3 Zrotation Yrotation Xrotation
			JOINT RightKnee
			{
				OFFSET -2.49360 -6.85110 0.00000
				CHANNELS 3 Zrotation Yrotation Xrotation
				JOINT RightAnkle
				{
					OFFSET -2.55538 -7.02085 0.00000
					CHANNELS 3 Zrotation Yrotation Xrotation
					JOINT RightToe
					{
						OFFSET -0.21516 -0.59115 1.68050
						CHANNELS 3 Zrotation Yrotation Xrotation
						End Site
						{
							OFFSET -0.00000 -0.00000 0.89604
						}
					}
				}
			}
		}
	}
	JOINT lowerback
	{
		OFFSET 0 0 0
		CHANNELS 3 Zrotation Yrotation Xrotation
		JOINT Chest
		{
			OFFSET 0.06382 1.72312 -0.19613
			CHANNELS 3 Zrotation Yrotation Xrotation
			JOINT Chest2
			{
				OFFSET -0.00055 1.73507 0.23859
				CHANNELS 3 Zrotation Yrotation Xrotation
				JOINT lowerneck
				{
					OFFSET 0 0 0
					CHANNELS 3 Zrotation Yrotation Xrotation
					JOINT Neck
					{
						OFFSET 0.03638 1.65562 0.09633
						CHANNELS 3 Zrotation Yrotation Xrotation
						JOINT Head
						{
							OFFSET 0.06388 1.62807 -0.32386
							CHANNELS 3 Zrotation Yrotation Xrotation
							End Site
							{
								OFFSET 0.00995 1.67644 -0.12021
							}
						}
					}
				}
				JOINT LeftCollar
				{
					OFFSET 0 0 0
					CHANNELS 3 Zrotation Yrotation Xrotation
					JOINT LeftShoulder
					{
						OFFSET 3.09648 1.42991 0.28122
CHANNELS 3 Zrotation Xrotation Yrotation
						JOINT LeftElbow
						{
OFFSET 0 -5.118780 -0.000000
CHANNELS 3 Zrotation Xrotation Yrotation
							JOINT LeftWrist
							{
OFFSET 0 -3.599710 0.000000
CHANNELS 3 Zrotation Xrotation Yrotation
								JOINT lhand
								{
									OFFSET 0 0 0
CHANNELS 3 Zrotation Xrotation Yrotation
									JOINT LFingers
									{
OFFSET 0 -0.628770 0.000000
CHANNELS 3 Zrotation Xrotation Yrotation
										End Site
										{
OFFSET 0 -0.506930 0.000000
										}
									}
								}
								JOINT LThumb
								{
OFFSET 0 0.000000 0.000000
CHANNELS 3 Zrotation Xrotation Yrotation
									End Site
									{
OFFSET 0 -0.514670 0.514670
									}
								}
							}
						}
					}
				}
				JOINT RightCollar
				{
					OFFSET 0 0 0
					CHANNELS 3 Zrotation Yrotation Xrotation
					JOINT RightShoulder
					{
						OFFSET -3.33565 1.14597 0.05047
CHANNELS 3 Zrotation Xrotation Yrotation
						JOINT RightElbow
						{
OFFSET 0 -5.490200 0.000000
CHANNELS 3 Zrotation Xrotation Yrotation
							JOINT RightWrist
							{
OFFSET 0 -3.206590 -0.000000
CHANNELS 3 Zrotation Xrotation Yrotation
								JOINT rhand
								{
									OFFSET 0 0 0
CHANNELS 3 Zrotation Xrotation Yrotation
									JOINT RFingers
									{
OFFSET 0 -0.691880 0.000000
CHANNELS 3 Zrotation Xrotation Yrotation
										End Site
										{
OFFSET 0 -0.557810 0.000000
										}
									}
								}
								JOINT RThumb
								{
OFFSET 0 0.000000 0.000000
CHANNELS 3 Zrotation Xrotation Yrotation
									End Site
									{
OFFSET 0 -0.566330 0.566330
									}
								}
							}
						}
					}
				}
			}
		}
	}
}
MOTION
Frames: 11
Frame Time: 0.008333333333333333
0.804950 17.496386 9.554927 -8.758028 -11.681354 10.963644 0.000000 0.000000 0.000000 -24.710537 -39.839442 30.288379 0.061141 -1.595159 -4.388031 1.755070 41.653634 -60.978240 1.866966 8.583232 24.500163 0.000000 0.000000 0.000000 24.806947 25.009643 4.197650 -0.017577 -0.855319 2.350833 0.161663 -13.622638 -17.318294 -0.080868 1.834305 -5.047865 8.167810 -0.318108 -1.276999 3.918461 0.251316 -11.193153 -0.315161 -0.456454 -11.354865 10.122667 9.414370 -8.061276 -12.780985 12.697716 6.366397 -4.626921 5.926034 4.705879 0.000000 0.000000 0.000000 16.994077 -32.536124 3.179813 122.418487 -55.630242 87.663306 30.843853 -107.042990 3.871518 0.000000 0.000000 0.000000 -7.125000 0.000000 0.000000 3.176623 25.472013 1.503724 0.000000 0.000000 0.000000 19.956416 -73.443277 124.917654 -107.421929 -58.821461 -75.028103 -19.553527 38.376194 40.684535 0.000000 0.000000 0.000000 7.125000 0.000000 0.000000 25.395314 70.885578 -16.008870
0.813109 17.497827 9.550096 -8.861693 -11.621184 11.026016 0.000000 0.000000 0.000000 -24.478191 -39.817243 30.126957 0.061941 -1.606266 -4.418797 1.671716 41.668056 -60.816203 1.837781 8.519658 24.303883 0.000000 0.000000 0.000000 24.923960 25.224727 4.241582 -0.017786 -0.860875 2.366085 0.163840 -13.755288 -17.499888 -0.056751 1.536715 -4.226842 8.567472 -0.214992 -1.149312 3.707377 0.404691 -11.127507 -0.777327 -0.431058 -11.353303 9.589468 9.049219 -7.420909 -12.493217 12.232270 5.930583 -4.536838 5.732011 4.360639 0.000000 0.000000 0.000000 16.612792 -32.766334 2.630605 122.622477 -55.569551 87.831659 30.650702 -106.875257 3.688253 0.000000 0.000000 0.000000 -7.125000 0.000000 0.000000 3.042039 25.693410 1.424248 0.000000 0.000000 0.000000 30.303760 -72.731599 134.019951 -107.534911 -58.805745 -75.124816 -18.671380 36.673575 41.887392 0.000000 0.000000 0.000000 7.125000 0.000000 0.000000 28.586441 71.599014 -18.552598
0.815114 17.497173 9.548723 -8.721957 -11.599292 10.958353 0.000000 0.000000 0.000000 -24.827678 -39.992113 30.334562 0.060577 -1.588284 -4.369030 1.792941 41.674002 -61.080063 1.862043 8.572626 24.467343 0.000000 0.000000 0.000000 24.747602 25.186627 4.247582 -0.017523 -0.854768 2.349169 0.178098 -13.836323 -17.436811 -0.084455 1.874673 -5.159544 8.669895 -0.185258 -1.099149 3.470852 0.425207 -10.964459 -1.097523 -0.436208 -11.190405 9.038140 8.732921 -6.918931 -12.450311 11.861154 5.657964 -4.498625 5.563600 4.117787 0.000000 0.000000 0.000000 15.940360 -32.843155 2.435467 123.355395 -55.347396 88.435379 30.637669 -106.834287 3.654787 0.000000 0.000000 0.000000 -7.125000 0.000000 0.000000 3.034331 25.732827 1.417791 0.000000 0.000000 0.000000 37.283897 -71.227821 139.228626 -107.276243 -58.841690 -74.903420 -16.971093 33.969178 42.584044 0.000000 0.000000 0.000000 7.125000 0.000000 0.000000 31.903544 71.577376 -20.815655
0.814664 17.494292 9.539789 -8.863041 -11.652195 10.874453 0.000000 0.000000 0.000000 -24.688690 -39.862061 30.385353 0.060718 -1.589877 -4.373434 1.853044 41.543797 -61.069999 1.900568 8.655802 24.724495 0.000000 0.000000 0.000000 24.897702 25.054997 4.190123 -0.019290 -0.896826 2.465036 0.159612 -13.617864 -17.339179 -0.080568 1.831253 -5.039667 8.979729 -0.115060 -0.986315 3.224425 0.514023 -10.746036 -1.548434 -0.424746 -11.000771 8.978487 8.582360 -6.614404 -12.693849 11.734777 5.938502 -4.584700 5.495699 4.150029 0.000000 0.000000 0.000000 15.427776 -33.230117 2.043498 123.063715 -55.436704 88.195280 30.478219 -106.839159 3.723098 0.000000 0.000000 0.000000 -7.125000 0.000000 0.000000 2.910051 25.660666 1.364520 0.000000 0.000000 0.000000 40.337908 -69.010611 140.511106 -107.120495 -58.863012 -74.770156 -14.637622 26.145393 43.979237 0.000000 0.000000 0.000000 7.125000 0.000000 0.000000 37.375508 71.834091 -24.860068
0.800371 17.490687 9.529242 -8.853804 -11.607362 10.855991 0.000000 0.000000 0.000000 -24.144841 -39.419204 29.803882 0.063136 -1.620830 -4.458851 1.192880 41.839983 -59.971610 1.734738 8.289798 23.598034 0.000000 0.000000 0.000000 24.947887 25.023214 4.147260 -0.020496 -0.924522 2.541183 0.136000 -13.505354 -17.482035 -0.055864 1.519826 -4.180481 8.673307 -0.113965 -1.003180 3.045114 0.478672 -10.675221 -1.574015 -0.418725 -10.900267 9.178814 8.469477 -6.059048 -13.131427 11.703366 6.498091 -4.770244 5.476148 4.261655 0.000000 0.000000 0.000000 14.646831 -33.054768 1.545929 123.057688 -55.438486 88.190360 30.537918 -106.888617 3.637777 0.000000 0.000000 0.000000 -7.125000 0.000000 0.000000 2.959911 25.756860 1.381311 0.000000 0.000000 0.000000 37.921502 -66.995152 137.012510 -107.314038 -58.836401 -74.935826 -14.679626 24.611606 44.314531 0.000000 0.000000 0.000000 7.125000 0.000000 0.000000 38.072132 72.093326 -25.565805
0.789554 17.488850 9.523704 -9.017602 -11.437485 10.844160 0.000000 0.000000 0.000000 -24.001900 -39.554389 29.950148 0.063499 -1.625491 -4.471676 0.986581 42.099181 -59.816301 1.672148 8.146662 23.160590 0.000000 0.000000 0.000000 25.142571 24.690069 4.097176 -0.019349 -0.897636 2.467312 0.130649 -13.374853 -17.349772 -0.041648 1.316517 -3.620210 8.336506 -0.092201 -1.138238 2.908208 0.458009 -10.563958 -1.539799 -0.395509 -10.680127 9.129900 8.368275 -6.457141 -12.882601 11.681503 8.057354 -4.656209 5.426367 4.778092 0.000000 0.000000 0.000000 13.827984 -33.112236 0.832394 123.105289 -55.423958 88.229514 30.862013 -107.069749 2.910471 0.000000 0.000000 0.000000 -7.125000 0.000000 0.000000 3.246623 26.587985 1.451275 0.000000 0.000000 0.000000 30.347484 -65.916982 129.838484 -108.564517 -58.656472 -76.004787 -16.225198 28.299626 44.423250 0.000000 0.000000 0.000000 7.125000 0.000000 0.000000 36.663861 72.720383 -25.021321
0.776868 17.485246 9.513431 -9.326504 -11.027911 10.811304 0.000000 0.000000 0.000000 -23.600024 -39.712208 30.029895 0.063188 -1.622166 -4.462499 0.785089 42.215052 -59.508323 1.616836 8.017663 22.767828 0.000000 0.000000 0.000000 25.544944 24.328808 4.010838 -0.019973 -0.913140 2.509819 0.137211 -13.385455 -17.277006 -0.065827 1.655126 -4.553565 7.945668 -0.221262 -1.136969 2.963597 0.260268 -10.385813 -1.254767 -0.442852 -10.482258 8.921721 8.357457 -7.061339 -12.827949 11.779399 9.335589 -4.562989 5.416938 5.265665 0.000000 0.000000 0.000000 13.557419 -33.377111 0.350631 122.640479 -55.564180 87.846542 30.842125 -106.786815 2.809704 0.000000 0.000000 0.000000 -7.125000 0.000000 0.000000 3.237228 26.705394 1.439005 0.000000 0.000000 0.000000 19.498243 -65.511290 121.020999 -110.807490 -58.298554 -77.916837 -17.527967 29.167517 42.600136 0.000000 0.000000 0.000000 7.125000 0.000000 0.000000 31.300787 71.782081 -20.535640
0.765467 17.485316 9.502557 -9.469532 -10.391114 10.912894 0.000000 0.000000 0.000000 -22.791812 -39.744325 29.396141 0.063662 -1.628382 -4.479734 0.190078 42.271980 -58.243779 1.491323 7.714439 21.850154 0.000000 0.000000 0.000000 25.747673 24.269011 3.929934 -0.019527 -0.901857 2.478882 0.154583 -13.722832 -17.573935 -0.062006 1.602309 -4.408023 7.388036 -0.451669 -1.220217 2.996077 -0.086788 -10.291494 -0.889697 -0.554684 -10.335199 9.915286 8.306557 -6.145793 -14.147550 11.797376 8.990020 -5.174516 5.435319 5.149526 0.000000 0.000000 0.000000 14.027532 -33.443278 0.354111 122.215125 -55.690179 87.495439 30.555150 -106.846306 2.696713 0.000000 0.000000 0.000000 -7.125000 0.000000 0.000000 3.024610 26.846344 1.334216 0.000000 0.000000 0.000000 7.234479 -64.860836 111.277923 -112.952323 -57.912221 -79.737853 -18.702157 30.302568 42.410667 0.000000 0.000000 0.000000 7.125000 0.000000 0.000000 29.557483 72.037274 -19.490713
0.761609 17.489330 9.500619 -9.620751 -9.999385 11.022406 0.000000 0.000000 0.000000 -22.212823 -39.785062 28.980288 0.063542 -1.626828 -4.475458 0.045479 42.090294 -57.684249 1.458812 7.633823 21.607164 0.000000 0.000000 0.000000 25.972329 24.374633 3.942172 -0.019214 -0.895799 2.462223 0.166936 -14.043888 -17.918477 -0.025733 1.035596 -2.846817 7.211006 -0.582751 -1.254722 2.937447 -0.282527 -10.227630 -0.842415 -0.634299 -10.249836 9.897113 8.325762 -6.317332 -14.280113 11.917838 9.734398 -5.192461 5.460232 5.428814 0.000000 0.000000 0.000000 14.766265 -33.347391 0.468583 121.574904 -55.875414 86.966052 30.182289 -106.487567 3.198734 0.000000 0.000000 0.000000 -7.125000 0.000000 0.000000 2.714938 26.279219 1.233344 0.000000 0.000000 0.000000 -4.355404 -64.121672 101.822676 -114.510812 -57.603572 -81.056237 -18.827442 29.428690 41.446491 0.000000 0.000000 0.000000 7.125000 0.000000 0.000000 27.589862 71.286993 -17.690890
0.762163 17.490954 9.502134 -9.642333 -10.055146 11.079350 0.000000 0.000000 0.000000 -22.126106 -39.750346 28.933131 0.066094 -1.658467 -4.562673 0.011416 42.162707 -57.695969 1.461388 7.640335 21.626883 0.000000 0.000000 0.000000 25.978414 24.454041 3.890422 -0.019677 -0.905448 2.488614 0.171523 -14.047486 -17.864134 -0.030714 1.131561 -3.110772 7.050085 -0.581009 -1.190363 2.780718 -0.293652 -10.223163 -0.920174 -0.634820 -10.279230 10.138627 8.260615 -6.169699 -14.491444 11.905695 10.267778 -5.305627 5.444632 5.593027 0.000000 0.000000 0.000000 14.871145 -33.295964 0.835860 122.044365 -55.740075 87.354294 30.902455 -106.800368 2.520042 0.000000 0.000000 0.000000 -7.125000 0.000000 0.000000 3.299068 27.039974 1.440671 0.000000 0.000000 0.000000 -13.378071 -62.717470 94.181728 -116.029007 -57.278266 -82.335792 -19.281494 30.230216 41.624880 0.000000 0.000000 0.000000 7.125000 0.000000 0.000000 27.371557 71.590614 -17.722793
0.765754 17.492077 9.509150 -9.583236 -10.136692 11.158873 0.000000 0.000000 0.000000 -22.213502 -39.802857 28.882585 0.065064 -1.645682 -4.527353 0.250541 42.008284 -58.057979 1.504241 7.746488 21.946742 0.000000 0.000000 0.000000 25.843627 24.426098 3.805317 -0.018777 -0.884647 2.431433 0.162371 -13.966801 -17.856789 -0.029634 1.110410 -3.052637 6.829868 -0.564259 -1.241477 2.696171 -0.289957 -10.279606 -0.888752 -0.620234 -10.305870 10.037939 8.210194 -6.285191 -14.206537 11.937912 11.429394 -5.189761 5.438521 5.949992 0.000000 0.000000 0.000000 14.370873 -33.448507 0.888643 121.865727 -55.791910 87.206680 31.513141 -104.633781 -0.411164 0.000000 0.000000 0.000000 -7.125000 0.000000 0.000000 3.918751 30.462589 1.362329 0.000000 0.000000 0.000000 -19.811925 -60.611157 88.535598 -117.172844 -57.016896 -83.296635 -19.314815 29.279531 41.490163 0.000000 0.000000 0.000000 7.125000 0.000000 0.000000 27.085810 71.489254 -17.470761
